<svg width="19" height="39" viewBox="0 0 19 39" fill="none" xmlns="http://www.w3.org/2000/svg">
<path d="M18.2 25.36C18.2 27.3867 17.6533 29.0933 16.56 30.48C15.4667 31.8667 13.7733 32.76 11.48 33.16V38.8H7.08V33.32C6.04 33.2133 4.96 33.0133 3.84 32.72C2.74667 32.4 1.56 31.9467 0.28 31.36L1.76 27.24C3.25333 27.88 4.52 28.3333 5.56 28.6C6.62667 28.84 7.66667 28.96 8.68 28.96C11.7733 28.96 13.32 27.8133 13.32 25.52C13.32 24.5867 13.08 23.8533 12.6 23.32C12.1467 22.7867 11.2933 22.32 10.04 21.92L6.76 20.84C2.84 19.56 0.88 16.9867 0.88 13.12C0.88 11.2267 1.38667 9.6 2.4 8.24C3.41333 6.88 4.97333 6 7.08 5.6V-1.90735e-06H11.48V5.52C12.4133 5.62667 13.3467 5.81333 14.28 6.08C15.2133 6.34666 16.1867 6.70667 17.2 7.16L15.72 11.28C14.44 10.7733 13.3467 10.4133 12.44 10.2C11.56 9.96 10.6533 9.84 9.72 9.84C8.49333 9.84 7.52 10.0667 6.8 10.52C6.10667 10.9467 5.76 11.7333 5.76 12.88C5.76 13.7333 6 14.44 6.48 15C6.98667 15.5333 7.81333 15.9867 8.96 16.36L12.24 17.44C14.2133 18.1067 15.6933 19.08 16.68 20.36C17.6933 21.6133 18.2 23.28 18.2 25.36Z" fill="#D60B51"/>
</svg>
