<svg width="12" height="24" viewBox="0 0 12 24" fill="none" xmlns="http://www.w3.org/2000/svg">
<path d="M11.52 15.416C11.52 16.632 11.192 17.656 10.536 18.488C9.88 19.32 8.864 19.856 7.488 20.096V23.48H4.848V20.192C4.224 20.128 3.576 20.008 2.904 19.832C2.248 19.64 1.536 19.368 0.768 19.016L1.656 16.544C2.552 16.928 3.312 17.2 3.936 17.36C4.576 17.504 5.2 17.576 5.808 17.576C7.664 17.576 8.592 16.888 8.592 15.512C8.592 14.952 8.448 14.512 8.16 14.192C7.888 13.872 7.376 13.592 6.624 13.352L4.656 12.704C2.304 11.936 1.128 10.392 1.128 8.072C1.128 6.936 1.432 5.96 2.04 5.144C2.648 4.328 3.584 3.8 4.848 3.56V0.199999H7.488V3.512C8.048 3.576 8.608 3.688 9.168 3.848C9.728 4.008 10.312 4.224 10.92 4.496L10.032 6.968C9.264 6.664 8.608 6.448 8.064 6.32C7.536 6.176 6.992 6.104 6.432 6.104C5.696 6.104 5.112 6.24 4.68 6.512C4.264 6.768 4.056 7.24 4.056 7.928C4.056 8.44 4.2 8.864 4.488 9.2C4.792 9.52 5.288 9.792 5.976 10.016L7.944 10.664C9.128 11.064 10.016 11.648 10.608 12.416C11.216 13.168 11.52 14.168 11.52 15.416Z" fill="#D60B51"/>
</svg>
